<svg width="176" height="72" viewBox="0 0 176 72" fill="none" xmlns="http://www.w3.org/2000/svg">
<path fill-rule="evenodd" clip-rule="evenodd" d="M3.66184 36.0018C3.66184 45.3066 11.2944 52.8612 20.6952 52.8612C24.657 52.8612 28.3054 51.5319 31.1928 49.2722L33.7445 51.7978C30.1856 54.6778 25.6419 56.4059 20.6952 56.4059C9.32472 56.4059 0.0805664 47.2562 0.0805664 36.0018C0.0805664 24.7474 9.32472 15.5977 20.6952 15.5977C25.709 15.5977 30.2975 17.37 33.8788 20.3165L31.3271 22.8421C28.395 20.5381 24.7018 19.1423 20.6952 19.1423C11.2944 19.1423 3.66184 26.697 3.66184 36.0018ZM14.2502 23.4414C16.2871 22.378 18.5925 21.7577 21.0546 21.7577C29.0677 21.7577 35.6035 28.2046 35.6035 36.1137C35.6035 44.0227 29.0901 50.4696 21.0994 50.4696C18.5701 50.4696 16.1975 49.8272 14.1159 48.6973L11.139 47.0579L18.0105 36.1137L11.1166 25.1694L14.2502 23.4414ZM16.1528 45.7951C17.63 46.5262 19.2864 46.9471 21.0546 46.9471C27.0756 46.9471 31.9775 42.0732 31.9775 36.1137C31.9775 30.1542 27.0756 25.3024 21.0546 25.3024C19.3088 25.3024 17.63 25.7233 16.1528 26.4544L22.2185 36.1358L16.1528 45.7951Z" fill="#F37234"/>
<path fill-rule="evenodd" clip-rule="evenodd" d="M111.046 36.0467C111.023 34.6655 111.247 33.3521 111.694 32.1521C112.142 30.952 112.768 29.9104 113.573 29.0273C114.379 28.1442 115.363 27.4649 116.526 26.9668C117.69 26.4686 118.965 26.2422 120.329 26.2422C122.097 26.2422 123.64 26.6271 124.938 27.397C126.235 28.1669 127.287 29.2764 128.047 30.7255L124.848 32.0162C123.797 30.25 122.32 29.3669 120.419 29.3669C119.256 29.3443 118.249 29.6387 117.354 30.2274C116.459 30.8161 115.788 31.6086 115.318 32.6276C114.849 33.6239 114.647 34.756 114.647 35.9788C114.647 37.2241 114.871 38.3336 115.363 39.3526C115.855 40.3715 116.549 41.164 117.444 41.7528C118.338 42.3415 119.367 42.6358 120.508 42.6132C122.276 42.6132 123.752 41.7301 124.871 39.9413L128.137 41.164C127.398 42.5453 126.369 43.6548 125.027 44.4926C123.707 45.3304 122.164 45.738 120.396 45.738C118.517 45.738 116.862 45.3304 115.453 44.4926C114.043 43.6774 112.947 42.5 112.187 41.0282C111.426 39.579 111.046 37.9034 111.046 36.0467ZM46.2607 26.6257V45.3063H50.5558C51.8757 45.3063 52.9718 45.261 53.8443 45.1931C54.7391 45.1025 55.5668 44.9214 56.3498 44.6497C57.1551 44.3779 57.9157 43.9477 58.5868 43.3816C59.5935 42.5665 60.3988 41.5249 60.9581 40.2569C61.5173 38.9662 61.8081 37.5397 61.8081 36.0226C61.8081 34.4149 61.4502 32.8979 60.7343 31.426C60.0185 29.9542 59.1013 28.8674 57.9828 28.1654C56.7077 27.3276 55.1418 26.8521 53.2627 26.7163C52.5021 26.6483 51.5401 26.6257 50.3769 26.6257H46.2607ZM51.4283 42.2721H49.7281V29.7278H51.7638C53.8219 29.7278 55.4102 30.2712 56.5511 31.3581C57.692 32.445 58.2512 33.9847 58.2512 36.0226C58.2512 38.2643 57.692 39.8493 56.5511 40.823C55.4102 41.7966 53.7101 42.2721 51.4283 42.2721ZM65.2075 41.0947C65.4089 41.8872 65.7221 42.6118 66.1918 43.2458C66.7511 44.0383 67.5341 44.6497 68.5855 45.1025C69.5698 45.5327 70.6883 45.7592 71.8739 45.7592C73.0595 45.7592 74.1557 45.5554 75.1623 45.1025C76.169 44.6497 76.952 44.0383 77.5112 43.2458C77.9586 42.6344 78.2942 41.9098 78.4955 41.0947C78.6968 40.2795 78.7863 39.3059 78.7863 38.1511V26.6257H75.3189V37.902C75.3189 38.6945 75.2965 39.3285 75.2294 39.7814C75.1623 40.2342 75.0281 40.6192 74.8491 40.9588C74.5807 41.4796 74.178 41.9098 73.6635 42.2042C73.149 42.4986 72.545 42.6571 71.8515 42.6571C71.158 42.6571 70.554 42.4986 70.0395 42.2042C69.525 41.9098 69.1223 41.5023 68.8539 40.9588C68.6526 40.6192 68.5407 40.2342 68.4736 39.7814C68.4065 39.3512 68.3841 38.7171 68.3841 37.902V26.6257H64.9167V38.1511C64.9167 39.3059 65.0062 40.2795 65.2075 41.0947ZM86.0353 45.329V29.7505H81.4494V26.6257H94.0886V29.7505H89.5027V45.329H86.0353ZM101.024 38.0831V45.329V45.3516H104.446V38.1511L110.71 26.6257H107.019L102.836 35.049L98.6525 26.6257H94.8495L101.024 38.0831ZM136.054 26.604L128.471 45.3299H131.961L133.996 39.9861H141.557L143.638 45.3299H147.15L139.678 26.604H136.054ZM140.394 36.9972H135.115L135.629 35.616C136.189 34.0309 136.658 32.695 137.039 31.5855L137.777 29.5023H137.844L138.112 30.3628C138.739 32.3101 139.343 34.0762 139.902 35.6386L140.394 36.9972ZM148.293 45.2838V42.2269H155.496C156.592 42.2269 157.397 42.0684 157.89 41.7741C158.404 41.4797 158.65 40.9589 158.65 40.2117C158.65 39.7588 158.538 39.3739 158.292 39.0795C158.046 38.8078 157.733 38.5814 157.353 38.4002C156.95 38.2191 156.368 38.038 155.585 37.8115L153.46 37.2454C152.23 36.9058 151.268 36.5888 150.575 36.2718C149.859 35.9321 149.255 35.3887 148.785 34.6641C148.315 33.9395 148.069 32.9659 148.069 31.7205C148.069 30.1355 148.516 28.9354 149.411 28.075C149.993 27.5315 150.642 27.1466 151.402 26.9202C152.185 26.6937 153.237 26.5805 154.556 26.5805H160.842L160.619 29.7053H154.199C153.259 29.7053 152.565 29.8411 152.14 30.1128C151.715 30.3846 151.492 30.8374 151.492 31.4714C151.514 32.1507 151.738 32.6489 152.14 32.9659C152.565 33.2829 153.326 33.5999 154.422 33.8716L156.637 34.4377C157.8 34.7321 158.762 35.0491 159.545 35.4114C160.306 35.751 160.932 36.2944 161.424 37.019C161.916 37.721 162.162 38.6493 162.162 39.8268C162.162 41.7967 161.514 43.2232 160.194 44.129C159.612 44.5366 158.919 44.8536 158.069 45.0121C157.241 45.1932 156.167 45.2838 154.892 45.2838H148.293ZM167.889 29.7505V45.329H171.334V29.7505H175.92V26.6257H163.303V29.7505H167.889Z" fill="#222222"/>
</svg>
