<svg width="541" height="150" viewBox="0 0 541 150" fill="none" xmlns="http://www.w3.org/2000/svg">
<g clip-path="url(#clip0)">
<path d="M25.1081 19.0859C23.8727 20.1668 24.058 22.1433 25.4478 23.008C39.8703 32.1495 56.9487 37.4614 75.2934 37.4614C93.5762 37.4614 110.624 32.2112 124.985 23.1007C126.374 22.2359 126.529 20.2594 125.324 19.1785C112.044 7.25757 94.441 0 75.1698 0C55.9604 0 38.4187 7.22668 25.1081 19.0859Z" fill="#035AE3"/>
<path d="M79.8022 49.1043V67.3872C79.8022 68.8078 80.9758 69.9505 82.3964 69.8578C104.972 68.5916 125.973 61.3649 143.823 49.7528C144.812 49.1043 145.213 47.8381 144.781 46.7263C142.372 40.8276 139.222 35.2686 135.454 30.2346C134.682 29.1846 133.199 28.9375 132.118 29.6787C117.634 39.3452 100.556 45.3983 82.1185 46.6336C80.8214 46.7263 79.8022 47.8072 79.8022 49.1043Z" fill="#035AE3"/>
<path d="M68.2212 46.6339C49.8457 45.3677 32.7672 39.2837 18.3139 29.6172C17.233 28.876 15.7506 29.1231 14.9785 30.1731C11.2107 35.2071 8.02975 40.7352 5.62086 46.6339C5.15761 47.7457 5.55909 49.0119 6.57824 49.6604C24.3979 61.3034 45.3676 68.561 67.9433 69.8581C69.3639 69.9507 70.5375 68.808 70.5375 67.3874V49.1045C70.5375 47.7766 69.5183 46.7265 68.2212 46.6339Z" fill="#035AE3"/>
<path d="M79.8022 81.5937V147.529C79.8022 148.981 81.0685 150.124 82.52 150C104.324 147.869 123.379 136.442 135.701 119.735C136.411 118.746 136.319 117.387 135.454 116.523L97.4675 78.5363C96.9116 77.9804 96.1395 77.7333 95.3365 77.8569C91.0129 78.5054 86.5966 78.9378 82.1185 79.1539C80.8523 79.2157 79.8022 80.2966 79.8022 81.5937Z" fill="#035AE3"/>
<path d="M5.03397 59.6048C3.55157 58.7092 1.63681 59.543 1.2971 61.2416C0.432366 65.7505 0 70.4139 0 75.1699C0 114.206 29.7406 146.294 67.8196 150C69.2712 150.154 70.5374 149.012 70.5374 147.529V81.5937C70.5374 80.2657 69.5182 79.1848 68.1902 79.123C45.1204 77.9494 23.5948 70.9389 5.03397 59.6048Z" fill="#035AE3"/>
<path d="M139.469 107.381C140.673 108.586 142.742 108.246 143.453 106.671C147.869 97.0971 150.371 86.4114 150.371 75.1699C150.371 70.4448 149.938 65.8432 149.104 61.3651C148.795 59.6665 146.881 58.8327 145.398 59.7283C134.991 66.0594 123.687 71.0316 111.674 74.367C109.852 74.8611 109.234 77.1465 110.593 78.5053L139.469 107.381Z" fill="#035AE3"/>
<path d="M195.645 65.0711H184.497V64.3299C184.497 60.2225 187.801 56.918 191.909 56.918H215.843V57.6592C215.843 61.7666 212.539 65.0711 208.431 65.0711H204.756V93.5455H203.057C198.95 93.5455 195.645 90.241 195.645 86.1335V65.0711Z" fill="black"/>
<path d="M240.117 90.3646L234.28 82.057H229.802V93.5146H223.162C221.803 93.5146 220.692 92.4028 220.692 91.044V56.918H237.708C245.769 56.918 251.606 62.0755 251.606 69.4875C251.606 74.8303 248.579 79.0304 243.823 80.9452L252.656 93.5146H246.17C243.761 93.5146 241.507 92.3411 240.117 90.3646ZM229.802 73.7494H236.844C239.994 73.7494 242.217 72.0508 242.217 69.4875C242.217 66.9241 239.994 65.2256 236.844 65.2256H229.802V73.7494Z" fill="black"/>
<path d="M281.192 88.2028H266.708L265.195 91.9706C264.824 92.8971 263.897 93.5148 262.909 93.5148H254.354L266.986 61.5815C268.098 58.7402 270.846 56.8872 273.873 56.8872H279.061L293.545 93.5148H284.991C283.972 93.5148 283.076 92.8971 282.705 91.9706L281.192 88.2028ZM278.351 81.0379L273.934 69.7964L269.518 81.0379H278.351Z" fill="black"/>
<path d="M297.499 56.918H310.871C323.44 56.918 332.304 64.4844 332.304 75.2009C332.304 85.9173 323.471 93.5455 310.871 93.5455H297.499V56.918ZM312.261 85.2688C318.499 85.2688 322.977 81.0687 322.977 75.2009C322.977 69.333 318.499 65.1947 312.261 65.1947H306.609V85.2997H312.261V85.2688Z" fill="black"/>
<path d="M345.398 56.918H347.097V86.1335C347.097 90.241 343.792 93.5455 339.685 93.5455H337.986V64.3299C337.986 60.2225 341.322 56.918 345.398 56.918Z" fill="black"/>
<path d="M354.2 56.918H363.311L379.246 78.5671V64.3299C379.246 60.2225 382.551 56.918 386.658 56.918H388.357V93.5455H379.246L363.311 71.8963V86.1335C363.311 90.241 360.006 93.5455 355.899 93.5455H354.2V56.918Z" fill="black"/>
<path d="M417.078 72.5138H428.814V87.801C425.077 91.7849 419.487 94.132 413.836 94.132C403.026 94.132 393.947 85.4538 393.947 75.1697C393.947 64.8856 402.996 56.2383 413.836 56.2383C419.487 56.2383 425.077 58.5854 428.814 62.5385L426.621 64.4841C424.367 66.4915 421.155 66.8621 418.437 65.565C416.986 64.8856 415.411 64.515 413.836 64.515C408.122 64.515 403.274 69.4254 403.274 75.1697C403.274 80.9758 408.122 85.8862 413.836 85.8862C415.967 85.8862 418.159 85.2068 419.951 83.9714V79.4007H412.106V77.4551C412.137 74.7373 414.33 72.5138 417.078 72.5138Z" fill="black"/>
<path d="M444.009 65.0711V71.6184H461.921V74.8303C461.921 77.548 459.697 79.7716 456.98 79.7716H444.009V86.1027C444.009 90.2101 440.704 93.5146 436.597 93.5146H434.898V56.918H463.743V60.1298C463.743 62.8476 461.519 65.0711 458.802 65.0711H444.009Z" fill="black"/>
<path d="M466.214 75.201C466.214 64.9168 475.232 56.2695 485.886 56.2695C496.603 56.2695 505.621 64.9168 505.621 75.201C505.621 85.4851 496.603 94.1633 485.886 94.1633C475.232 94.1633 466.214 85.4851 466.214 75.201ZM496.232 75.201C496.232 69.4567 491.476 64.5462 485.886 64.5462C480.296 64.5462 475.54 69.4567 475.54 75.201C475.54 81.007 480.296 85.9175 485.886 85.9175C491.476 85.8866 496.232 81.007 496.232 75.201Z" fill="black"/>
<path d="M520.043 65.0711V70.7845H537.955V73.9964C537.955 76.7141 535.732 78.9377 533.014 78.9377H520.043V85.3923H539.778V88.6042C539.778 91.3219 537.554 93.5455 534.836 93.5455H510.933V56.918H539.778V60.1298C539.778 62.8476 537.554 65.0711 534.836 65.0711H520.043Z" fill="black"/>
</g>
<defs>
<clipPath id="clip0">
<rect width="539.778" height="150" fill="white"/>
</clipPath>
</defs>
</svg>
