<svg width="151" height="47" id="レイヤー_1" xmlns="http://www.w3.org/2000/svg" viewBox="0 0 200 62.7">
  <style>.st0{fill:#005bab}.st1{fill:#00aae7}.st2{fill:#231815}</style>
  <path class="st0"
    d="M76.7 0h-9.1l4.5 7.8zM61.6 0l7.5 13 2.4-4.1L66.4 0zM64.1 7.1L60 0h-4.4l4.1 7.1z" />
  <path class="st0"
    d="M61.9 11l4.2 7.2 2.3-3.8-4.3-7.3zM57.8 7.1L53.7 0h-4.1l4.1 7.1zM58.9 16.2l4.2 7.3 2.1-3.6-4.2-7.3zM55.9 21.4l4.2 7.3 1.9-3.2-4.2-7.3zM51.4 7.1L47.3 0h-3.8l4.1 7.1zM52.9 26.6l4.2 7.3 1.7-2.9-4.2-7.3zM45 7.1L40.9 0h-3.4l4.1 7.1zM38.6 7.1L34.5 0h-3l4.1 7.1zM49.9 31.8l4.2 7.3 1.5-2.6-4.2-7.3zM32.2 7.1L28.1 0h-2.6l4 7.1zM46.8 37.1l4.3 7.2 1.3-2.2-4.2-7.3zM25.8 7.1L21.7 0h-2.3l4.1 7.1zM43.8 42.3l4.2 7.3 1.2-2-4.2-7.3zM19.4 7.1L15.3 0h-1.9l4.1 7.1zM40.8 47.5l4.2 7.3 1-1.7-4.2-7.3zM11.5 7.1H13L8.9 0H7.4zM37.8 52.7L42 60l.8-1.3-4.2-7.3z" />
  <path class="st1"
    d="M38.6 7.1l12.8 22.1 1.5-2.6L41.6 7.1zM18.1 24.5c-.5 0-1-.1-1.5-.2l18.8 32.6 2.5-4.3-16.8-28.8c-.9.4-1.9.7-3 .7M18.1 10.7c.6 0 1.1.1 1.7.2l-2.2-3.8H13l2.4 4.1c.8-.3 1.7-.5 2.7-.5M11.2 17.6V17L5.5 7.1H0l32.1 55.6 2.8-4.8-19.6-34c-2.5-1.1-4.1-3.5-4.1-6.3M25.8 7.1L45 40.3l1.9-3.3L29.6 7.1zM45 7.1l9.6 16.6 1.3-2.3-8.2-14.3zM22.2 23.1l16.3 28.3 2.3-3.9-16.2-28c-.3 1.4-1.2 2.7-2.4 3.6M32.2 7.1l16 27.7 1.7-3L35.6 7.1zM51.4 7.1l6.4 11.1 1.1-2-5.2-9.1zM59.7 7.1h-1.9l3.2 5.5.9-1.7zM19.4 7.1l2.9 5.1c1.3 1.1 2.3 2.6 2.5 4.4l16.9 29.3 2.1-3.6L23.6 7.1h-4.2zM14.3 11.8l-2.7-4.7h-5l4.9 8.4c.5-1.5 1.5-2.8 2.8-3.7" />
  <path class="st2"
    d="M93.5 28.8c0 3.9-3.2 7.3-7.2 7.3-3.5 0-7.5-1.7-7.5-7.5V11.3c0-4.1 3-7.3 7.4-7.3 4.2 0 7.3 3.2 7.3 7.5v1.8H89v-1.5c0-1.8-1.1-3.3-2.8-3.3-2.3 0-2.8 1.6-2.8 3.7v16.2c0 1.8.7 3.2 2.8 3.2 1.2 0 2.8-.7 2.8-3.2v-1.6h4.5v2zM97.6 4.2h4.5v13.6h5.6V4.2h4.6v31.6h-4.6v-14h-5.6v14h-4.5zM117.5 4.2h4.5v31.6h-4.5zM131.6 22.5l-6.3-18.3h4.8l3.7 12.6h.1l3.6-12.6h4.8l-6.2 18.3v13.3h-4.5zM144.7 11.7c0-5.1 3.9-7.7 7.6-7.7 3.7 0 7.6 2.6 7.6 7.7v16.7c0 5.1-3.9 7.7-7.6 7.7-3.7 0-7.6-2.6-7.6-7.7V11.7zm4.6 16.7c0 2.2 1.4 3.2 3.1 3.2s3.1-1 3.1-3.2V11.7c0-2.2-1.4-3.2-3.1-3.2s-3.1 1-3.1 3.2v16.7zM164.8 4.2h6.7c5.1 0 7.9 3.1 7.9 8.2v14.8c0 5.9-3 8.7-8.3 8.7h-6.3V4.2zm4.5 27.4h2.1c2.5 0 3.5-1.2 3.5-3.9V12.4c0-2.5-.8-3.9-3.5-3.9h-2.1v23.1zM189.2 4.2h3.8l7.1 31.6h-4.5l-1.3-6.8H188l-1.3 6.8h-4.5l7-31.6zm1.9 9.1l-2.3 11.5h4.5l-2.2-11.5zM87.5 53.8c0 2.3-1.9 4.4-4.3 4.4-2.1 0-4.5-1-4.5-4.5V43.4c0-2.5 1.8-4.3 4.4-4.3 2.5 0 4.3 1.9 4.3 4.5v1.1h-2.7v-.9c0-1.1-.6-2-1.7-2-1.4 0-1.7.9-1.7 2.2v9.6c0 1.1.4 1.9 1.6 1.9.7 0 1.7-.4 1.7-1.9v-.9h2.7v1.1zM90.3 43.6c0-3.1 2.3-4.6 4.5-4.6s4.5 1.5 4.5 4.6v10c0 3.1-2.3 4.6-4.5 4.6s-4.5-1.5-4.5-4.6v-10zm2.7 10c0 1.3.8 1.9 1.8 1.9s1.8-.6 1.8-1.9v-10c0-1.3-.8-1.9-1.8-1.9s-1.8.6-1.8 1.9v10zM114.9 39.2h4.1c1.5 0 2.6.3 3.5 1.3.9 1 1.2 2.2 1.2 4.4 0 1.6-.1 2.8-.8 3.8-.7 1.2-1.9 2-3.9 2h-1.4V58h-2.7V39.2zm2.7 8.9h1.3c2.2 0 2.2-1.3 2.2-3.2 0-1.8 0-3.2-2.1-3.2h-1.4v6.4zM126.3 43.6c0-3.1 2.3-4.6 4.5-4.6s4.5 1.5 4.5 4.6v10c0 3.1-2.3 4.6-4.5 4.6s-4.5-1.5-4.5-4.6v-10zm2.7 10c0 1.3.8 1.9 1.8 1.9s1.8-.6 1.8-1.9v-10c0-1.3-.8-1.9-1.8-1.9s-1.8.6-1.8 1.9v10zM153.7 39.2h2.3l4.2 18.9h-2.7l-.8-4.1H153l-.8 4.1h-2.7l4.2-18.9zm1.1 5.4l-1.4 6.8h2.7l-1.3-6.8zM163.2 41.7h-3.1v-2.5h9v2.5h-3.2V58h-2.7zM171.4 39.2h2.7v18.9h-2.7zM177.6 43.6c0-3.1 2.3-4.6 4.5-4.6s4.5 1.5 4.5 4.6v10c0 3.1-2.3 4.6-4.5 4.6s-4.5-1.5-4.5-4.6v-10zm2.7 10c0 1.3.8 1.9 1.8 1.9s1.8-.6 1.8-1.9v-10c0-1.3-.8-1.9-1.8-1.9s-1.8.6-1.8 1.9v10zM190 39.2h2.6l4.1 11.3h.1V39.2h2.7V58h-2.6l-4.1-11.3h-.1V58H190zM112.3 58l-2.8-8.2c.4-.3.8-.7 1.1-1.2.6-1 .8-2.1.8-3.8 0-2.3-.3-3.4-1.2-4.4-.9-1-2-1.3-3.5-1.3h-4.1V58h2.7v-7.4H107.1l2.3 7.4h2.9zm-7-16.3h1.4c2.1 0 2.1 1.5 2.1 3.2 0 1.9 0 3.2-2.2 3.2h-1.3v-6.4zM148.3 58l-2.8-8.2c.4-.3.8-.7 1.1-1.2.6-1 .8-2.1.8-3.8 0-2.3-.3-3.4-1.2-4.4-.9-1-2-1.3-3.5-1.3h-4.1V58h2.7v-7.4H143.1l2.3 7.4h2.9zm-7-16.3h1.4c2.1 0 2.1 1.5 2.1 3.2 0 1.9 0 3.2-2.2 3.2h-1.3v-6.4z" />
</svg>